<?xml version="1.0" encoding="UTF-8" standalone="no"?>
<svg width="299.156mm" height="25.4mm"
 xmlns="http://www.w3.org/2000/svg" xmlns:xlink="http://www.w3.org/1999/xlink"  version="1.2" baseProfile="tiny">
<title>Qt SVG Document</title>
<desc>Generated with Qt</desc>
<defs>
</defs>
<g fill="none" stroke="black" stroke-width="1" fill-rule="evenodd" stroke-linecap="square" stroke-linejoin="bevel" >

<g fill="none" stroke="#000000" stroke-opacity="1" stroke-width="1" stroke-linecap="square" stroke-linejoin="bevel" transform="matrix(1,0,0,1,0,0)"
font-family="Ubuntu" font-size="11" font-weight="400" font-style="normal" 
>
</g>

<g fill="none" stroke="#000000" stroke-opacity="1" stroke-width="1" stroke-linecap="square" stroke-linejoin="bevel" transform="matrix(1,0,0,1,0,0)"
font-family="Ubuntu" font-size="11" font-weight="400" font-style="normal" 
>
</g>

<g fill="none" stroke="#000000" stroke-opacity="1" stroke-width="1" stroke-linecap="square" stroke-linejoin="bevel" transform="matrix(2,0,0,2,0.0032,72)"
font-family="Ubuntu" font-size="11" font-weight="400" font-style="normal" 
>
</g>

<g fill="#ffffff" fill-opacity="1" stroke="none" transform="matrix(2,0,0,2,0.0032,72)"
font-family="Ubuntu" font-size="11" font-weight="400" font-style="normal" 
>
<rect x="-0.0016" y="-36" width="423.777" height="36"/>
</g>

<g fill="none" stroke="#000000" stroke-opacity="1" stroke-width="1" stroke-linecap="square" stroke-linejoin="bevel" transform="matrix(2,0,0,2,0.0032,72)"
font-family="Ubuntu" font-size="11" font-weight="400" font-style="normal" 
>
</g>

<g fill="none" stroke="#000000" stroke-opacity="1" stroke-width="1" stroke-linecap="square" stroke-linejoin="bevel" transform="matrix(2,0,0,2,0.0032,72)"
font-family="Ubuntu" font-size="11" font-weight="400" font-style="normal" 
>
</g>

<g fill="none" stroke="#000000" stroke-opacity="1" stroke-width="1" stroke-linecap="square" stroke-linejoin="bevel" transform="matrix(2,0,0,2,0.0032,72)"
font-family="Ubuntu" font-size="11" font-weight="400" font-style="normal" 
>
</g>

<g fill="none" stroke="#000000" stroke-opacity="1" stroke-width="1" stroke-linecap="square" stroke-linejoin="bevel" transform="matrix(2,0,0,2,0.0032,72)"
font-family="Ubuntu" font-size="11" font-weight="400" font-style="normal" 
>
</g>

<g fill="none" stroke="#000000" stroke-opacity="1" stroke-width="1" stroke-linecap="square" stroke-linejoin="round" transform="matrix(2,0,0,2,0.0032,72)"
font-family="Ubuntu" font-size="11" font-weight="400" font-style="normal" 
>
<rect x="184.781" y="-35.5" width="113.998" height="35"/>
</g>

<g fill="none" stroke="#000000" stroke-opacity="1" stroke-width="1" stroke-linecap="square" stroke-linejoin="bevel" transform="matrix(2,0,0,2,0.0032,72)"
font-family="Ubuntu" font-size="11" font-weight="400" font-style="normal" 
>
</g>

<g fill="none" stroke="#000000" stroke-opacity="1" stroke-width="1" stroke-linecap="square" stroke-linejoin="bevel" transform="matrix(2,0,0,2,406.876,22)"
font-family="Ubuntu" font-size="11" font-weight="400" font-style="normal" 
>
</g>

<g fill="none" stroke="#000000" stroke-opacity="1" stroke-width="1" stroke-linecap="square" stroke-linejoin="bevel" transform="matrix(2,0,0,2,406.876,22)"
font-family="sans" font-size="11" font-weight="100" font-style="normal" 
>
</g>

<g fill="#000000" fill-opacity="1" stroke="#000000" stroke-opacity="1" stroke-width="1" stroke-linecap="square" stroke-linejoin="round" transform="matrix(2,0,0,2,406.876,22)"
font-family="sans" font-size="11" font-weight="100" font-style="normal" 
>
<path vector-effect="none" fill-rule="nonzero" d="M2.96875,2.98438 L3.53125,2.98438 L0.734375,12.0156 L0.171875,12.0156 L2.96875,2.98438 M8.95313,6.35938 L8.95313,2.64063 L9.42188,2.64063 L9.42188,11 L8.95313,11 L8.95313,9.64063 C8.72396,10.1615 8.47396,10.5156 8.20313,10.7031 C7.80729,11.0052 7.42708,11.1563 7.0625,11.1563 C6.35417,11.1563 5.76302,10.8672 5.28906,10.2891 C4.8151,9.71094 4.57813,8.94792 4.57813,8 C4.57813,7.05208 4.8151,6.28906 5.28906,5.71094 C5.76302,5.13281 6.35417,4.84375 7.0625,4.84375 C7.42708,4.84375 7.80729,4.98958 8.20313,5.28125 C8.47396,5.47917 8.72396,5.83854 8.95313,6.35938 M5.71875,5.90625 C5.30208,6.32292 5.09375,7.02083 5.09375,8 C5.09375,8.97917 5.30208,9.67708 5.71875,10.0938 C6.13542,10.5104 6.57292,10.7188 7.03125,10.7188 C7.47917,10.7188 7.91146,10.5104 8.32813,10.0938 C8.73438,9.67708 8.9375,8.97917 8.9375,8 C8.9375,7.02083 8.73438,6.32292 8.32813,5.90625 C7.91146,5.48958 7.47917,5.28125 7.03125,5.28125 C6.57292,5.28125 6.13542,5.48958 5.71875,5.90625 M15.0938,3.28125 L11.7656,8.4375 L15.0938,8.4375 L15.0938,3.28125 M14.6719,2.98438 L15.6406,2.98438 L15.6406,8.4375 L16.7969,8.4375 L16.7969,8.875 L15.6406,8.875 L15.6406,11 L15.0938,11 L15.0938,8.875 L11.2031,8.875 L11.2031,8.3125 L14.6719,2.98438 M22.0781,3.28125 L18.75,8.4375 L22.0781,8.4375 L22.0781,3.28125 M21.6563,2.98438 L22.625,2.98438 L22.625,8.4375 L23.7813,8.4375 L23.7813,8.875 L22.625,8.875 L22.625,11 L22.0781,11 L22.0781,8.875 L18.1875,8.875 L18.1875,8.3125 L21.6563,2.98438 M26.0469,2.98438 L29.8438,2.98438 L29.8438,3.42188 L26.5781,3.42188 L26.5781,6.10938 C26.7448,6.04688 26.9063,6 27.0625,5.96875 C27.2188,5.9375 27.4479,5.92188 27.75,5.92188 C28.5729,5.92188 29.224,6.15104 29.7031,6.60938 C30.1823,7.05729 30.4219,7.66146 30.4219,8.42188 C30.4219,9.28646 30.1719,9.95833 29.6719,10.4375 C29.1823,10.9167 28.4896,11.1563 27.5938,11.1563 C27.3021,11.1563 27,11.1302 26.6875,11.0781 C26.375,11.026 26.0521,10.9531 25.7188,10.8594 L25.7188,10.3125 C26,10.4375 26.2917,10.5365 26.5938,10.6094 C26.8958,10.6719 27.2135,10.7031 27.5469,10.7031 C28.2552,10.7031 28.8229,10.5 29.25,10.0938 C29.6771,9.6875 29.8906,9.13021 29.8906,8.42188 C29.8906,7.78646 29.6823,7.28646 29.2656,6.92188 C28.849,6.54688 28.2865,6.35938 27.5781,6.35938 C27.4323,6.35938 27.2135,6.40104 26.9219,6.48438 C26.6406,6.55729 26.349,6.67708 26.0469,6.84375 L26.0469,2.98438 M37.2344,13.1719 L37.2344,13.5938 L31.5156,13.5938 L31.5156,13.1719 L37.2344,13.1719 M38.3594,4.98438 L38.8594,4.98438 L38.8594,11 L38.3594,11 L38.3594,4.98438 M38.3594,2.64063 L38.8594,2.64063 L38.8594,3.3125 L38.3594,3.3125 L38.3594,2.64063 M45.75,6.29688 C45.9375,5.80729 46.2292,5.44271 46.625,5.20313 C47.0104,4.96354 47.4635,4.84375 47.9844,4.84375 C48.5052,4.84375 48.9219,5.02604 49.2344,5.39063 C49.5573,5.75521 49.7188,6.41667 49.7188,7.375 L49.7188,11 L49.2344,11 L49.2344,7.40625 C49.2344,6.57292 49.1198,6.01042 48.8906,5.71875 C48.6615,5.42708 48.3542,5.28125 47.9688,5.28125 C47.4167,5.28125 46.9323,5.44792 46.5156,5.78125 C46.0469,6.15625 45.8125,6.76042 45.8125,7.59375 L45.8125,11 L45.3281,11 L45.3281,7.40625 C45.3281,6.60417 45.2161,6.04948 44.9922,5.74219 C44.7682,5.4349 44.4583,5.28125 44.0625,5.28125 C43.5104,5.28125 43.026,5.45313 42.6094,5.79688 C42.1406,6.16146 41.9063,6.76042 41.9063,7.59375 L41.9063,11 L41.4219,11 L41.4219,4.98438 L41.9063,4.98438 L41.9063,6.10938 C42.0833,5.71354 42.3594,5.40104 42.7344,5.17188 C43.099,4.95313 43.5521,4.84375 44.0938,4.84375 C44.4479,4.84375 44.7865,4.95833 45.1094,5.1875 C45.3594,5.375 45.5729,5.74479 45.75,6.29688 M54.5313,7.60938 C53.7292,7.60938 53.1536,7.75 52.8047,8.03125 C52.4557,8.3125 52.2813,8.72396 52.2813,9.26563 C52.2813,9.79688 52.4271,10.1745 52.7188,10.3984 C53.0104,10.6224 53.3542,10.7344 53.75,10.7344 C54.5,10.7344 55.0417,10.4167 55.375,9.78125 C55.7083,9.13542 55.875,8.53125 55.875,7.96875 L55.875,7.60938 L54.5313,7.60938 M56.375,7.5625 L56.375,11 L55.875,11 L55.875,9.35938 C55.6042,10.1615 55.2396,10.6719 54.7813,10.8906 C54.4271,11.0677 54.0677,11.1563 53.7031,11.1563 C53.1094,11.1563 52.6406,10.9948 52.2969,10.6719 C51.9531,10.349 51.7813,9.8776 51.7813,9.25781 C51.7813,8.63802 52.0052,8.14063 52.4531,7.76563 C52.901,7.39063 53.6302,7.20313 54.6406,7.20313 L55.875,7.20313 L55.875,7.10938 C55.875,6.57813 55.7188,6.14063 55.4063,5.79688 C55.1146,5.45313 54.6198,5.28125 53.9219,5.28125 C53.5781,5.28125 53.2292,5.34375 52.875,5.46875 C52.6458,5.55208 52.3438,5.71875 51.9688,5.96875 L51.9688,5.4375 C52.2917,5.23958 52.5938,5.09896 52.875,5.01563 C53.2708,4.90104 53.651,4.84375 54.0156,4.84375 C54.7344,4.84375 55.3229,5.05729 55.7813,5.48438 C56.1771,5.84896 56.375,6.54167 56.375,7.5625 M62.8594,7.92188 C62.8594,7.08854 62.6901,6.44271 62.3516,5.98438 C62.013,5.52604 61.5365,5.29688 60.9219,5.29688 C60.3177,5.29688 59.8464,5.52604 59.5078,5.98438 C59.1693,6.44271 59,7.08854 59,7.92188 C59,8.75521 59.1693,9.40104 59.5078,9.85938 C59.8464,10.3177 60.3177,10.5469 60.9219,10.5469 C61.5365,10.5469 62.013,10.3177 62.3516,9.85938 C62.6901,9.40104 62.8594,8.75521 62.8594,7.92188 M63.3438,10.25 C63.3438,11.5 63.1068,12.3177 62.6328,12.7031 C62.1589,13.0885 61.5573,13.2813 60.8281,13.2813 C60.474,13.2813 60.1458,13.2604 59.8438,13.2188 C59.5313,13.1563 59.2292,13.0729 58.9375,12.9688 L58.9375,12.4063 C59.2292,12.5625 59.5156,12.6797 59.7969,12.7578 C60.0781,12.8359 60.3698,12.875 60.6719,12.875 C61.2656,12.875 61.7786,12.7474 62.2109,12.4922 C62.6432,12.237 62.8594,11.5521 62.8594,10.4375 L62.8594,9.48438 C62.7031,9.90104 62.5,10.2292 62.25,10.4688 C61.8542,10.8229 61.4115,11 60.9219,11 C60.1615,11 59.5677,10.7318 59.1406,10.1953 C58.7135,9.65885 58.5,8.90104 58.5,7.92188 C58.5,6.94271 58.7135,6.1849 59.1406,5.64844 C59.5677,5.11198 60.1615,4.84375 60.9219,4.84375 C61.4115,4.84375 61.8281,4.99479 62.1719,5.29688 C62.4427,5.53646 62.6719,5.85938 62.8594,6.26563 L62.8594,4.98438 L63.3438,4.98438 L63.3438,10.25 M70.1406,7.75 L70.1406,8.0625 L65.5781,8.0625 C65.5781,9.02083 65.7656,9.69792 66.1406,10.0938 C66.5573,10.5208 67.1719,10.7344 67.9844,10.7344 C68.2031,10.7344 68.4896,10.6875 68.8438,10.5938 C69.1979,10.5 69.5521,10.3594 69.9063,10.1719 L69.9063,10.6875 C69.5521,10.8438 69.1901,10.9609 68.8203,11.0391 C68.4505,11.1172 68.1563,11.1563 67.9375,11.1563 C67.0104,11.1563 66.3125,10.9063 65.8438,10.4063 C65.3333,9.875 65.0781,9.09375 65.0781,8.0625 C65.0781,6.98958 65.3073,6.1875 65.7656,5.65625 C66.2448,5.11458 66.9115,4.84375 67.7656,4.84375 C68.5469,4.84375 69.1406,5.10417 69.5469,5.625 C69.9427,6.16667 70.1406,6.875 70.1406,7.75 M69.6406,7.64063 C69.6406,6.79688 69.4479,6.18229 69.0625,5.79688 C68.75,5.45313 68.3177,5.28125 67.7656,5.28125 C67.1719,5.28125 66.6719,5.45833 66.2656,5.8125 C65.8906,6.14583 65.6667,6.75521 65.5938,7.64063 L69.6406,7.64063 M75.625,5.15625 L75.625,5.70313 C75.2708,5.50521 75.0521,5.39583 74.9688,5.375 C74.7188,5.32292 74.4063,5.29167 74.0313,5.28125 C73.4688,5.28125 73.026,5.39063 72.7031,5.60938 C72.4531,5.79688 72.3281,6.11458 72.3281,6.5625 C72.3281,6.875 72.4479,7.11458 72.6875,7.28125 C72.9271,7.46875 73.276,7.61458 73.7344,7.71875 L74.0781,7.78125 C74.651,7.90625 75.0833,8.08333 75.375,8.3125 C75.7188,8.58333 75.8958,8.92708 75.9063,9.34375 C75.9063,9.90625 75.7396,10.349 75.4063,10.6719 C75.0521,10.9948 74.474,11.1563 73.6719,11.1563 C73.2344,11.1563 72.901,11.125 72.6719,11.0625 C72.3906,10.9896 72.099,10.8958 71.7969,10.7813 L71.7969,10.1563 C72.2344,10.4063 72.5156,10.5521 72.6406,10.5938 C72.9948,10.6875 73.349,10.7344 73.7031,10.7344 C74.276,10.7344 74.7031,10.6146 74.9844,10.375 C75.2656,10.125 75.4063,9.80729 75.4063,9.42188 C75.4063,9.08854 75.3125,8.84896 75.125,8.70313 C74.8542,8.48438 74.4271,8.30729 73.8438,8.17188 L73.5,8.09375 C72.9896,7.96875 72.6042,7.80208 72.3438,7.59375 C72.0104,7.32292 71.8438,6.99479 71.8438,6.60938 C71.8438,5.98438 72.0443,5.53385 72.4453,5.25781 C72.8464,4.98177 73.3385,4.84375 73.9219,4.84375 C74.4219,4.84375 74.7656,4.86979 74.9531,4.92188 C75.1823,4.98438 75.4063,5.0625 75.625,5.15625 "/>
</g>

<g fill="none" stroke="#000000" stroke-opacity="1" stroke-width="1" stroke-linecap="square" stroke-linejoin="bevel" transform="matrix(2,0,0,2,406.876,22)"
font-family="sans" font-size="11" font-weight="100" font-style="normal" 
>
</g>

<g fill="none" stroke="#000000" stroke-opacity="1" stroke-width="1" stroke-linecap="square" stroke-linejoin="bevel" transform="matrix(2,0,0,2,406.876,22)"
font-family="Ubuntu" font-size="11" font-weight="400" font-style="normal" 
>
</g>

<g fill="none" stroke="#000000" stroke-opacity="1" stroke-width="1" stroke-linecap="square" stroke-linejoin="bevel" transform="matrix(2,0,0,2,0.0032,72)"
font-family="Ubuntu" font-size="11" font-weight="400" font-style="normal" 
>
</g>

<g fill="none" stroke="#000000" stroke-opacity="1" stroke-width="1" stroke-linecap="square" stroke-linejoin="bevel" transform="matrix(2,0,0,2,0.0032,72)"
font-family="Ubuntu" font-size="11" font-weight="400" font-style="normal" 
>
</g>

<g fill="none" stroke="#000000" stroke-opacity="1" stroke-width="1" stroke-linecap="square" stroke-linejoin="bevel" transform="matrix(2,0,0,2,0.0032,72)"
font-family="Ubuntu" font-size="11" font-weight="400" font-style="normal" 
>
</g>

<g fill="none" stroke="#000000" stroke-opacity="1" stroke-width="1" stroke-linecap="square" stroke-linejoin="round" transform="matrix(2,0,0,2,0.0032,72)"
font-family="Ubuntu" font-size="11" font-weight="400" font-style="normal" 
>
<ellipse cx="368.53" cy="-18" rx="54.7456" ry="17.5"/>
</g>

<g fill="none" stroke="#000000" stroke-opacity="1" stroke-width="1" stroke-linecap="square" stroke-linejoin="bevel" transform="matrix(2,0,0,2,0.0032,72)"
font-family="Ubuntu" font-size="11" font-weight="400" font-style="normal" 
>
</g>

<g fill="none" stroke="#000000" stroke-opacity="1" stroke-width="1" stroke-linecap="square" stroke-linejoin="bevel" transform="matrix(2,0,0,2,683.829,22)"
font-family="Ubuntu" font-size="11" font-weight="400" font-style="normal" 
>
</g>

<g fill="none" stroke="#000000" stroke-opacity="1" stroke-width="1" stroke-linecap="square" stroke-linejoin="bevel" transform="matrix(2,0,0,2,683.829,22)"
font-family="sans" font-size="11" font-weight="100" font-style="normal" 
>
</g>

<g fill="#000000" fill-opacity="1" stroke="#000000" stroke-opacity="1" stroke-width="1" stroke-linecap="square" stroke-linejoin="round" transform="matrix(2,0,0,2,683.829,22)"
font-family="sans" font-size="11" font-weight="100" font-style="normal" 
>
<path vector-effect="none" fill-rule="nonzero" d="M2.96875,2.98438 L3.53125,2.98438 L0.734375,12.0156 L0.171875,12.0156 L2.96875,2.98438 M8.95313,7.92188 C8.95313,7.08854 8.78385,6.44271 8.44531,5.98438 C8.10677,5.52604 7.63021,5.29688 7.01563,5.29688 C6.41146,5.29688 5.9401,5.52604 5.60156,5.98438 C5.26302,6.44271 5.09375,7.08854 5.09375,7.92188 C5.09375,8.75521 5.26302,9.40104 5.60156,9.85938 C5.9401,10.3177 6.41146,10.5469 7.01563,10.5469 C7.63021,10.5469 8.10677,10.3177 8.44531,9.85938 C8.78385,9.40104 8.95313,8.75521 8.95313,7.92188 M9.4375,10.25 C9.4375,11.5 9.20052,12.3177 8.72656,12.7031 C8.2526,13.0885 7.65104,13.2813 6.92188,13.2813 C6.56771,13.2813 6.23958,13.2604 5.9375,13.2188 C5.625,13.1563 5.32292,13.0729 5.03125,12.9688 L5.03125,12.4063 C5.32292,12.5625 5.60938,12.6797 5.89063,12.7578 C6.17188,12.8359 6.46354,12.875 6.76563,12.875 C7.35938,12.875 7.8724,12.7474 8.30469,12.4922 C8.73698,12.237 8.95313,11.5521 8.95313,10.4375 L8.95313,9.48438 C8.79688,9.90104 8.59375,10.2292 8.34375,10.4688 C7.94792,10.8229 7.50521,11 7.01563,11 C6.25521,11 5.66146,10.7318 5.23438,10.1953 C4.80729,9.65885 4.59375,8.90104 4.59375,7.92188 C4.59375,6.94271 4.80729,6.1849 5.23438,5.64844 C5.66146,5.11198 6.25521,4.84375 7.01563,4.84375 C7.50521,4.84375 7.92188,4.99479 8.26563,5.29688 C8.53646,5.53646 8.76563,5.85938 8.95313,6.26563 L8.95313,4.98438 L9.4375,4.98438 L9.4375,10.25 M11.4844,8.60938 L11.4844,4.98438 L11.9688,4.98438 L11.9688,8.57813 C11.9688,9.35938 12.0938,9.90885 12.3438,10.2266 C12.5938,10.5443 12.9635,10.7031 13.4531,10.7031 C14.026,10.7031 14.5156,10.5313 14.9219,10.1875 C15.3281,9.84375 15.5313,9.24479 15.5313,8.39063 L15.5313,4.98438 L16.0156,4.98438 L16.0156,11 L15.5313,11 L15.5313,9.875 C15.3542,10.2396 15.1198,10.5156 14.8281,10.7031 C14.4115,10.9948 13.9479,11.1406 13.4375,11.1406 C12.8438,11.1406 12.3698,10.9375 12.0156,10.5313 C11.6615,10.1354 11.4844,9.49479 11.4844,8.60938 M18.5,4.98438 L19,4.98438 L19,11 L18.5,11 L18.5,4.98438 M18.5,2.64063 L19,2.64063 L19,3.3125 L18.5,3.3125 L18.5,2.64063 M25.9219,13.1719 L25.9219,13.5938 L20.2031,13.5938 L20.2031,13.1719 L25.9219,13.1719 M31.6094,7.375 L31.6094,11 L31.1094,11 L31.1094,7.40625 C31.1094,6.625 30.9844,6.07552 30.7344,5.75781 C30.4844,5.4401 30.1146,5.28125 29.625,5.28125 C29.0521,5.28125 28.5677,5.45313 28.1719,5.79688 C27.7552,6.14063 27.5469,6.73958 27.5469,7.59375 L27.5469,11 L27.0625,11 L27.0625,4.98438 L27.5469,4.98438 L27.5469,6.10938 C27.724,5.74479 27.9583,5.46875 28.25,5.28125 C28.6667,4.98958 29.1302,4.84375 29.6406,4.84375 C30.2448,4.84375 30.724,5.04688 31.0781,5.45313 C31.4323,5.84896 31.6094,6.48958 31.6094,7.375 M37.6094,6.01563 C37.2552,5.52604 36.7708,5.28125 36.1563,5.28125 C35.5417,5.28125 35.0573,5.52604 34.7031,6.01563 C34.349,6.49479 34.1719,7.15104 34.1719,7.98438 C34.1719,8.83854 34.349,9.51042 34.7031,10 C35.0573,10.4896 35.5417,10.7344 36.1563,10.7344 C36.7708,10.7344 37.2552,10.4896 37.6094,10 C37.9635,9.5 38.1406,8.82813 38.1406,7.98438 C38.1406,7.16146 37.9635,6.50521 37.6094,6.01563 M36.1563,4.84375 C36.9167,4.84375 37.5208,5.13021 37.9688,5.70313 C38.4167,6.27604 38.6406,7.03646 38.6406,7.98438 C38.6406,8.97396 38.4167,9.75521 37.9688,10.3281 C37.5208,10.901 36.9167,11.1875 36.1563,11.1875 C35.375,11.1875 34.7604,10.901 34.3125,10.3281 C33.875,9.75521 33.6563,8.97396 33.6563,7.98438 C33.6563,7.02604 33.8802,6.26302 34.3281,5.69531 C34.776,5.1276 35.3854,4.84375 36.1563,4.84375 M44.75,6.35938 L44.75,2.64063 L45.2188,2.64063 L45.2188,11 L44.75,11 L44.75,9.64063 C44.5208,10.1615 44.2708,10.5156 44,10.7031 C43.6042,11.0052 43.224,11.1563 42.8594,11.1563 C42.151,11.1563 41.5599,10.8672 41.0859,10.2891 C40.612,9.71094 40.375,8.94792 40.375,8 C40.375,7.05208 40.612,6.28906 41.0859,5.71094 C41.5599,5.13281 42.151,4.84375 42.8594,4.84375 C43.224,4.84375 43.6042,4.98958 44,5.28125 C44.2708,5.47917 44.5208,5.83854 44.75,6.35938 M41.5156,5.90625 C41.099,6.32292 40.8906,7.02083 40.8906,8 C40.8906,8.97917 41.099,9.67708 41.5156,10.0938 C41.9323,10.5104 42.3698,10.7188 42.8281,10.7188 C43.276,10.7188 43.7083,10.5104 44.125,10.0938 C44.5313,9.67708 44.7344,8.97917 44.7344,8 C44.7344,7.02083 44.5313,6.32292 44.125,5.90625 C43.7083,5.48958 43.276,5.28125 42.8281,5.28125 C42.3698,5.28125 41.9323,5.48958 41.5156,5.90625 M52.4063,7.75 L52.4063,8.0625 L47.8438,8.0625 C47.8438,9.02083 48.0313,9.69792 48.4063,10.0938 C48.8229,10.5208 49.4375,10.7344 50.25,10.7344 C50.4688,10.7344 50.7552,10.6875 51.1094,10.5938 C51.4635,10.5 51.8177,10.3594 52.1719,10.1719 L52.1719,10.6875 C51.8177,10.8438 51.4557,10.9609 51.0859,11.0391 C50.7161,11.1172 50.4219,11.1563 50.2031,11.1563 C49.276,11.1563 48.5781,10.9063 48.1094,10.4063 C47.599,9.875 47.3438,9.09375 47.3438,8.0625 C47.3438,6.98958 47.5729,6.1875 48.0313,5.65625 C48.5104,5.11458 49.1771,4.84375 50.0313,4.84375 C50.8125,4.84375 51.4063,5.10417 51.8125,5.625 C52.2083,6.16667 52.4063,6.875 52.4063,7.75 M51.9063,7.64063 C51.9063,6.79688 51.7135,6.18229 51.3281,5.79688 C51.0156,5.45313 50.5833,5.28125 50.0313,5.28125 C49.4375,5.28125 48.9375,5.45833 48.5313,5.8125 C48.1563,6.14583 47.9323,6.75521 47.8594,7.64063 L51.9063,7.64063"/>
</g>

<g fill="none" stroke="#000000" stroke-opacity="1" stroke-width="1" stroke-linecap="square" stroke-linejoin="bevel" transform="matrix(2,0,0,2,683.829,22)"
font-family="sans" font-size="11" font-weight="100" font-style="normal" 
>
</g>

<g fill="none" stroke="#000000" stroke-opacity="1" stroke-width="1" stroke-linecap="square" stroke-linejoin="bevel" transform="matrix(2,0,0,2,683.829,22)"
font-family="Ubuntu" font-size="11" font-weight="400" font-style="normal" 
>
</g>

<g fill="none" stroke="#000000" stroke-opacity="1" stroke-width="1" stroke-linecap="square" stroke-linejoin="bevel" transform="matrix(2,0,0,2,0.0032,72)"
font-family="Ubuntu" font-size="11" font-weight="400" font-style="normal" 
>
</g>

<g fill="none" stroke="#000000" stroke-opacity="1" stroke-width="1" stroke-linecap="square" stroke-linejoin="bevel" transform="matrix(2,0,0,2,0.0032,72)"
font-family="Ubuntu" font-size="11" font-weight="400" font-style="normal" 
>
</g>

<g fill="none" stroke="#000000" stroke-opacity="1" stroke-width="1" stroke-linecap="square" stroke-linejoin="bevel" transform="matrix(2,0,0,2,0.0032,72)"
font-family="Ubuntu" font-size="11" font-weight="400" font-style="normal" 
>
</g>

<g fill="none" stroke="#000000" stroke-opacity="1" stroke-width="1" stroke-linecap="square" stroke-linejoin="round" transform="matrix(2,0,0,2,0.0032,72)"
font-family="Ubuntu" font-size="11" font-weight="400" font-style="normal" 
>
<ellipse cx="85.142" cy="-18" rx="84.6436" ry="17.5"/>
</g>

<g fill="none" stroke="#000000" stroke-opacity="1" stroke-width="1" stroke-linecap="square" stroke-linejoin="bevel" transform="matrix(2,0,0,2,0.0032,72)"
font-family="Ubuntu" font-size="11" font-weight="400" font-style="normal" 
>
</g>

<g fill="none" stroke="#000000" stroke-opacity="1" stroke-width="1" stroke-linecap="square" stroke-linejoin="bevel" transform="matrix(2,0,0,2,82.1934,22)"
font-family="Ubuntu" font-size="11" font-weight="400" font-style="normal" 
>
</g>

<g fill="none" stroke="#000000" stroke-opacity="1" stroke-width="1" stroke-linecap="square" stroke-linejoin="bevel" transform="matrix(2,0,0,2,82.1934,22)"
font-family="sans" font-size="11" font-weight="100" font-style="normal" 
>
</g>

<g fill="#000000" fill-opacity="1" stroke="#000000" stroke-opacity="1" stroke-width="1" stroke-linecap="square" stroke-linejoin="round" transform="matrix(2,0,0,2,82.1934,22)"
font-family="sans" font-size="11" font-weight="100" font-style="normal" 
>
<path vector-effect="none" fill-rule="nonzero" d="M2.96875,2.98438 L3.53125,2.98438 L0.734375,12.0156 L0.171875,12.0156 L2.96875,2.98438 M8.95313,6.35938 L8.95313,2.64063 L9.42188,2.64063 L9.42188,11 L8.95313,11 L8.95313,9.64063 C8.72396,10.1615 8.47396,10.5156 8.20313,10.7031 C7.80729,11.0052 7.42708,11.1563 7.0625,11.1563 C6.35417,11.1563 5.76302,10.8672 5.28906,10.2891 C4.8151,9.71094 4.57813,8.94792 4.57813,8 C4.57813,7.05208 4.8151,6.28906 5.28906,5.71094 C5.76302,5.13281 6.35417,4.84375 7.0625,4.84375 C7.42708,4.84375 7.80729,4.98958 8.20313,5.28125 C8.47396,5.47917 8.72396,5.83854 8.95313,6.35938 M5.71875,5.90625 C5.30208,6.32292 5.09375,7.02083 5.09375,8 C5.09375,8.97917 5.30208,9.67708 5.71875,10.0938 C6.13542,10.5104 6.57292,10.7188 7.03125,10.7188 C7.47917,10.7188 7.91146,10.5104 8.32813,10.0938 C8.73438,9.67708 8.9375,8.97917 8.9375,8 C8.9375,7.02083 8.73438,6.32292 8.32813,5.90625 C7.91146,5.48958 7.47917,5.28125 7.03125,5.28125 C6.57292,5.28125 6.13542,5.48958 5.71875,5.90625 M15.0938,3.28125 L11.7656,8.4375 L15.0938,8.4375 L15.0938,3.28125 M14.6719,2.98438 L15.6406,2.98438 L15.6406,8.4375 L16.7969,8.4375 L16.7969,8.875 L15.6406,8.875 L15.6406,11 L15.0938,11 L15.0938,8.875 L11.2031,8.875 L11.2031,8.3125 L14.6719,2.98438 M22.0781,3.28125 L18.75,8.4375 L22.0781,8.4375 L22.0781,3.28125 M21.6563,2.98438 L22.625,2.98438 L22.625,8.4375 L23.7813,8.4375 L23.7813,8.875 L22.625,8.875 L22.625,11 L22.0781,11 L22.0781,8.875 L18.1875,8.875 L18.1875,8.3125 L21.6563,2.98438 M26.0469,2.98438 L29.8438,2.98438 L29.8438,3.42188 L26.5781,3.42188 L26.5781,6.10938 C26.7448,6.04688 26.9063,6 27.0625,5.96875 C27.2188,5.9375 27.4479,5.92188 27.75,5.92188 C28.5729,5.92188 29.224,6.15104 29.7031,6.60938 C30.1823,7.05729 30.4219,7.66146 30.4219,8.42188 C30.4219,9.28646 30.1719,9.95833 29.6719,10.4375 C29.1823,10.9167 28.4896,11.1563 27.5938,11.1563 C27.3021,11.1563 27,11.1302 26.6875,11.0781 C26.375,11.026 26.0521,10.9531 25.7188,10.8594 L25.7188,10.3125 C26,10.4375 26.2917,10.5365 26.5938,10.6094 C26.8958,10.6719 27.2135,10.7031 27.5469,10.7031 C28.2552,10.7031 28.8229,10.5 29.25,10.0938 C29.6771,9.6875 29.8906,9.13021 29.8906,8.42188 C29.8906,7.78646 29.6823,7.28646 29.2656,6.92188 C28.849,6.54688 28.2865,6.35938 27.5781,6.35938 C27.4323,6.35938 27.2135,6.40104 26.9219,6.48438 C26.6406,6.55729 26.349,6.67708 26.0469,6.84375 L26.0469,2.98438 M37.2344,13.1719 L37.2344,13.5938 L31.5156,13.5938 L31.5156,13.1719 L37.2344,13.1719 M38.8594,9.64063 L38.8594,13.2813 L38.375,13.2813 L38.375,4.98438 L38.8594,4.98438 L38.8594,6.35938 C39.0885,5.83854 39.3333,5.47917 39.5938,5.28125 C40,4.98958 40.3854,4.84375 40.75,4.84375 C41.4583,4.84375 42.0495,5.13281 42.5234,5.71094 C42.9974,6.28906 43.2344,7.05208 43.2344,8 C43.2344,8.94792 42.9974,9.71094 42.5234,10.2891 C42.0495,10.8672 41.4583,11.1563 40.75,11.1563 C40.3854,11.1563 40,11.0052 39.5938,10.7031 C39.3333,10.5156 39.0885,10.1615 38.8594,9.64063 M42.0938,10.0938 C42.5104,9.67708 42.7188,8.97917 42.7188,8 C42.7188,7.02083 42.5104,6.32292 42.0938,5.90625 C41.6771,5.48958 41.2396,5.28125 40.7813,5.28125 C40.3333,5.28125 39.901,5.48958 39.4844,5.90625 C39.0781,6.32292 38.875,7.02083 38.875,8 C38.875,8.97917 39.0781,9.67708 39.4844,10.0938 C39.901,10.5104 40.3333,10.7188 40.7813,10.7188 C41.2396,10.7188 41.6771,10.5104 42.0938,10.0938 M45.2813,8.60938 L45.2813,4.98438 L45.7656,4.98438 L45.7656,8.57813 C45.7656,9.35938 45.8906,9.90885 46.1406,10.2266 C46.3906,10.5443 46.7604,10.7031 47.25,10.7031 C47.8229,10.7031 48.3125,10.5313 48.7188,10.1875 C49.125,9.84375 49.3281,9.24479 49.3281,8.39063 L49.3281,4.98438 L49.8125,4.98438 L49.8125,11 L49.3281,11 L49.3281,9.875 C49.151,10.2396 48.9167,10.5156 48.625,10.7031 C48.2083,10.9948 47.7448,11.1406 47.2344,11.1406 C46.6406,11.1406 46.1667,10.9375 45.8125,10.5313 C45.4583,10.1354 45.2813,9.49479 45.2813,8.60938 M56.0313,10.0938 C56.4479,9.67708 56.6563,8.97917 56.6563,8 C56.6563,7.02083 56.4479,6.32292 56.0313,5.90625 C55.6146,5.48958 55.1771,5.28125 54.7188,5.28125 C54.2708,5.28125 53.8385,5.48958 53.4219,5.90625 C53.0156,6.32292 52.8125,7.02083 52.8125,8 C52.8125,8.97917 53.0156,9.67708 53.4219,10.0938 C53.8385,10.5104 54.2708,10.7188 54.7188,10.7188 C55.1771,10.7188 55.6146,10.5104 56.0313,10.0938 M52.7969,6.35938 C53.026,5.83854 53.2708,5.47917 53.5313,5.28125 C53.9375,4.98958 54.3229,4.84375 54.6875,4.84375 C55.3958,4.84375 55.987,5.13281 56.4609,5.71094 C56.9349,6.28906 57.1719,7.05208 57.1719,8 C57.1719,8.94792 56.9349,9.71094 56.4609,10.2891 C55.987,10.8672 55.3958,11.1563 54.6875,11.1563 C54.3229,11.1563 53.9375,11.0052 53.5313,10.7031 C53.2708,10.5156 53.026,10.1615 52.7969,9.64063 L52.7969,11 L52.3125,11 L52.3125,2.64063 L52.7969,2.64063 L52.7969,6.35938 M59.2813,2.64063 L59.7656,2.64063 L59.7656,11 L59.2813,11 L59.2813,2.64063 M62.3125,4.98438 L62.8125,4.98438 L62.8125,11 L62.3125,11 L62.3125,4.98438 M62.3125,2.64063 L62.8125,2.64063 L62.8125,3.3125 L62.3125,3.3125 L62.3125,2.64063 M68.7813,5.15625 L68.7813,5.70313 C68.4271,5.50521 68.2083,5.39583 68.125,5.375 C67.875,5.32292 67.5625,5.29167 67.1875,5.28125 C66.625,5.28125 66.1823,5.39063 65.8594,5.60938 C65.6094,5.79688 65.4844,6.11458 65.4844,6.5625 C65.4844,6.875 65.6042,7.11458 65.8438,7.28125 C66.0833,7.46875 66.4323,7.61458 66.8906,7.71875 L67.2344,7.78125 C67.8073,7.90625 68.2396,8.08333 68.5313,8.3125 C68.875,8.58333 69.0521,8.92708 69.0625,9.34375 C69.0625,9.90625 68.8958,10.349 68.5625,10.6719 C68.2083,10.9948 67.6302,11.1563 66.8281,11.1563 C66.3906,11.1563 66.0573,11.125 65.8281,11.0625 C65.5469,10.9896 65.2552,10.8958 64.9531,10.7813 L64.9531,10.1563 C65.3906,10.4063 65.6719,10.5521 65.7969,10.5938 C66.151,10.6875 66.5052,10.7344 66.8594,10.7344 C67.4323,10.7344 67.8594,10.6146 68.1406,10.375 C68.4219,10.125 68.5625,9.80729 68.5625,9.42188 C68.5625,9.08854 68.4688,8.84896 68.2813,8.70313 C68.0104,8.48438 67.5833,8.30729 67,8.17188 L66.6563,8.09375 C66.1458,7.96875 65.7604,7.80208 65.5,7.59375 C65.1667,7.32292 65,6.99479 65,6.60938 C65,5.98438 65.2005,5.53385 65.6016,5.25781 C66.0026,4.98177 66.4948,4.84375 67.0781,4.84375 C67.5781,4.84375 67.9219,4.86979 68.1094,4.92188 C68.3385,4.98438 68.5625,5.0625 68.7813,5.15625 M75.6406,7.375 L75.6406,11 L75.1406,11 L75.1406,7.40625 C75.1406,6.625 75.0104,6.07552 74.75,5.75781 C74.4896,5.4401 74.0938,5.28125 73.5625,5.28125 C72.9479,5.28125 72.4635,5.45833 72.1094,5.8125 C71.7552,6.16667 71.5781,6.76042 71.5781,7.59375 L71.5781,11 L71.0938,11 L71.0938,2.64063 L71.5781,2.64063 L71.5781,6.09375 C71.6927,5.79167 71.901,5.52083 72.2031,5.28125 C72.5469,4.98958 73.0365,4.84375 73.6719,4.84375 C74.276,4.84375 74.7552,5.05729 75.1094,5.48438 C75.4635,5.91146 75.6406,6.54167 75.6406,7.375 M82.75,7.75 L82.75,8.0625 L78.1875,8.0625 C78.1875,9.02083 78.375,9.69792 78.75,10.0938 C79.1667,10.5208 79.7813,10.7344 80.5938,10.7344 C80.8125,10.7344 81.099,10.6875 81.4531,10.5938 C81.8073,10.5 82.1615,10.3594 82.5156,10.1719 L82.5156,10.6875 C82.1615,10.8438 81.7995,10.9609 81.4297,11.0391 C81.0599,11.1172 80.7656,11.1563 80.5469,11.1563 C79.6198,11.1563 78.9219,10.9063 78.4531,10.4063 C77.9427,9.875 77.6875,9.09375 77.6875,8.0625 C77.6875,6.98958 77.9167,6.1875 78.375,5.65625 C78.8542,5.11458 79.5208,4.84375 80.375,4.84375 C81.1563,4.84375 81.75,5.10417 82.1563,5.625 C82.5521,6.16667 82.75,6.875 82.75,7.75 M82.25,7.64063 C82.25,6.79688 82.0573,6.18229 81.6719,5.79688 C81.3594,5.45313 80.9271,5.28125 80.375,5.28125 C79.7813,5.28125 79.2813,5.45833 78.875,5.8125 C78.5,6.14583 78.276,6.75521 78.2031,7.64063 L82.25,7.64063 M88.0938,5.40625 C88.0104,5.36458 87.901,5.33333 87.7656,5.3125 C87.6406,5.29167 87.4896,5.28125 87.3125,5.28125 C86.6979,5.28125 86.1927,5.50521 85.7969,5.95313 C85.474,6.31771 85.3125,6.94271 85.3125,7.82813 L85.3125,11 L84.8281,11 L84.8281,4.98438 L85.3125,4.98438 L85.3125,6.10938 C85.4792,5.78646 85.7083,5.51563 86,5.29688 C86.3958,4.99479 86.8646,4.84375 87.4063,4.84375 C87.5521,4.84375 87.6771,4.84896 87.7813,4.85938 C87.8854,4.85938 87.9896,4.86979 88.0938,4.89063 L88.0938,5.40625"/>
</g>

<g fill="none" stroke="#000000" stroke-opacity="1" stroke-width="1" stroke-linecap="square" stroke-linejoin="bevel" transform="matrix(2,0,0,2,82.1934,22)"
font-family="sans" font-size="11" font-weight="100" font-style="normal" 
>
</g>

<g fill="none" stroke="#000000" stroke-opacity="1" stroke-width="1" stroke-linecap="square" stroke-linejoin="bevel" transform="matrix(2,0,0,2,82.1934,22)"
font-family="Ubuntu" font-size="11" font-weight="400" font-style="normal" 
>
</g>

<g fill="none" stroke="#000000" stroke-opacity="1" stroke-width="1" stroke-linecap="square" stroke-linejoin="bevel" transform="matrix(2,0,0,2,0.0032,72)"
font-family="Ubuntu" font-size="11" font-weight="400" font-style="normal" 
>
</g>

<g fill="none" stroke="#000000" stroke-opacity="1" stroke-width="1" stroke-linecap="square" stroke-linejoin="bevel" transform="matrix(2,0,0,2,0.0032,72)"
font-family="Ubuntu" font-size="11" font-weight="400" font-style="normal" 
>
</g>

<g fill="none" stroke="#000000" stroke-opacity="1" stroke-width="1" stroke-linecap="square" stroke-linejoin="bevel" transform="matrix(2,0,0,2,0.0032,72)"
font-family="Ubuntu" font-size="11" font-weight="400" font-style="normal" 
>
</g>

<g fill="none" stroke="#000000" stroke-opacity="1" stroke-width="1" stroke-linecap="square" stroke-linejoin="round" transform="matrix(2,0,0,2,0.0032,72)"
font-family="Ubuntu" font-size="11" font-weight="400" font-style="normal" 
>
<path vector-effect="none" fill-rule="evenodd" d="M299.32,-18 C300.62,-18 301.93,-18 303.24,-18 "/>
</g>

<g fill="none" stroke="#000000" stroke-opacity="1" stroke-width="1" stroke-linecap="square" stroke-linejoin="bevel" transform="matrix(2,0,0,2,0.0032,72)"
font-family="Ubuntu" font-size="11" font-weight="400" font-style="normal" 
>
</g>

<g fill="none" stroke="#000000" stroke-opacity="1" stroke-width="1" stroke-linecap="square" stroke-linejoin="bevel" transform="matrix(2,0,0,2,0.0032,72)"
font-family="Ubuntu" font-size="11" font-weight="400" font-style="normal" 
>
</g>

<g fill="#000000" fill-opacity="1" stroke="#000000" stroke-opacity="1" stroke-width="1" stroke-linecap="square" stroke-linejoin="round" transform="matrix(2,0,0,2,0.0032,72)"
font-family="Ubuntu" font-size="11" font-weight="400" font-style="normal" 
>
<path vector-effect="none" fill-rule="evenodd" d="M303.24,-18 L303.24,-14.4895 L313.27,-18 L303.24,-21.5105 L303.24,-18"/>
</g>

<g fill="none" stroke="#000000" stroke-opacity="1" stroke-width="1" stroke-linecap="square" stroke-linejoin="bevel" transform="matrix(2,0,0,2,0.0032,72)"
font-family="Ubuntu" font-size="11" font-weight="400" font-style="normal" 
>
</g>

<g fill="none" stroke="#000000" stroke-opacity="1" stroke-width="1" stroke-linecap="square" stroke-linejoin="bevel" transform="matrix(2,0,0,2,0.0032,72)"
font-family="Ubuntu" font-size="11" font-weight="400" font-style="normal" 
>
</g>

<g fill="none" stroke="#000000" stroke-opacity="1" stroke-width="1" stroke-linecap="square" stroke-linejoin="bevel" transform="matrix(2,0,0,2,0.0032,72)"
font-family="Ubuntu" font-size="11" font-weight="400" font-style="normal" 
>
</g>

<g fill="none" stroke="#000000" stroke-opacity="1" stroke-width="1" stroke-linecap="square" stroke-linejoin="bevel" transform="matrix(2,0,0,2,0.0032,72)"
font-family="Ubuntu" font-size="11" font-weight="400" font-style="normal" 
>
</g>

<g fill="none" stroke="#000000" stroke-opacity="1" stroke-width="1" stroke-linecap="square" stroke-linejoin="round" transform="matrix(2,0,0,2,0.0032,72)"
font-family="Ubuntu" font-size="11" font-weight="400" font-style="normal" 
>
<path vector-effect="none" fill-rule="evenodd" d="M170.7,-18 C171.69,-18 172.68,-18 173.66,-18 "/>
</g>

<g fill="none" stroke="#000000" stroke-opacity="1" stroke-width="1" stroke-linecap="square" stroke-linejoin="bevel" transform="matrix(2,0,0,2,0.0032,72)"
font-family="Ubuntu" font-size="11" font-weight="400" font-style="normal" 
>
</g>

<g fill="none" stroke="#000000" stroke-opacity="1" stroke-width="1" stroke-linecap="square" stroke-linejoin="bevel" transform="matrix(2,0,0,2,0.0032,72)"
font-family="Ubuntu" font-size="11" font-weight="400" font-style="normal" 
>
</g>

<g fill="#000000" fill-opacity="1" stroke="#000000" stroke-opacity="1" stroke-width="1" stroke-linecap="square" stroke-linejoin="round" transform="matrix(2,0,0,2,0.0032,72)"
font-family="Ubuntu" font-size="11" font-weight="400" font-style="normal" 
>
<path vector-effect="none" fill-rule="evenodd" d="M173.66,-18 L173.66,-14.353 L184.08,-18 L173.66,-21.647 L173.66,-18"/>
</g>

<g fill="none" stroke="#000000" stroke-opacity="1" stroke-width="1" stroke-linecap="square" stroke-linejoin="bevel" transform="matrix(2,0,0,2,0.0032,72)"
font-family="Ubuntu" font-size="11" font-weight="400" font-style="normal" 
>
</g>

<g fill="none" stroke="#000000" stroke-opacity="1" stroke-width="1" stroke-linecap="square" stroke-linejoin="bevel" transform="matrix(1,0,0,1,0,0)"
font-family="Ubuntu" font-size="11" font-weight="400" font-style="normal" 
>
</g>
</g>
</svg>
